<?xml version="1.0" encoding="UTF-8"?>
<svg width="512" height="512" version="1.1" viewBox="0 0 512 512" xmlns="http://www.w3.org/2000/svg" xmlns:xlink="http://www.w3.org/1999/xlink">
    <!--Generated by IJSVG (https://github.com/iconjar/IJSVG)-->
    <g transform="scale(10.6667)">
        <path fill="#000" fill-rule="evenodd" stroke="none" d="M26,40.6061l14,-7.79528v-15.3523l-14,7.72236v15.4252Zm-4,-15.4291l-14,-7.774l-4e-08,15.4393l14,7.76773v-15.433Zm2,-18.8817l-13.8814,7.70844l13.9014,7.7177l13.9139,-7.6885l-13.934,-7.73764Zm-18.9713,5.95626l18,-10c0.604045,-0.335581 1.33853,-0.335581 1.94257,0l18,10c0.63493,0.352739 1.02871,1.02198 1.02871,1.74831v20c0,0.726334 -0.393784,1.39558 -1.02871,1.74831l-18,10c-0.604045,0.33558 -1.33853,0.33558 -1.94257,0l-18,-10c-0.63493,-0.352739 -1.02871,-1.02198 -1.02871,-1.74831v-20c0,-0.726334 0.393784,-1.39558 1.02871,-1.74831Z"></path>
    </g>
</svg>